<svg width="16" height="15" viewBox="0 0 16 15" fill="none" xmlns="http://www.w3.org/2000/svg">
<path d="M1.66225 4.40274C2.77042 4.90806 4.11605 5.16072 5.69915 5.16072C7.28225 5.16072 8.62788 4.90806 9.73605 4.40274C10.8442 3.89742 11.3983 3.28996 11.3983 2.58036C11.3983 1.87076 10.8442 1.2633 9.73605 0.757981C8.62788 0.25266 7.28225 0 5.69915 0C4.11605 0 2.77042 0.25266 1.66225 0.757981C0.554083 1.2633 0 1.87076 0 2.58036C0 3.28996 0.554083 3.89742 1.66225 4.40274Z" fill="white"/>
<path d="M4.07648 6.63637C4.72555 6.72775 5.26644 6.77345 5.69915 6.77345C5.97535 6.77345 6.29561 6.75483 6.65995 6.7176C6.42323 7.05991 6.22164 7.42877 6.05499 7.8222C5.97679 8.00682 5.90866 8.19429 5.85048 8.38441C5.79865 8.38558 5.7482 8.38617 5.69915 8.38617C5.26644 8.38617 4.72555 8.34048 4.07648 8.24909C3.42741 8.1577 2.80208 8.00987 2.20051 7.80559C1.59893 7.60131 1.08178 7.33521 0.649069 7.00729C0.216356 6.67937 0 6.27888 0 5.80581V4.19309C0 4.66615 0.216356 5.06665 0.649069 5.39457C1.08178 5.72249 1.59893 5.98859 2.20051 6.19287C2.80208 6.39714 3.42741 6.54498 4.07648 6.63637Z" fill="white"/>
<path d="M4.07648 9.86182C4.67419 9.94597 5.18017 9.99138 5.59441 9.99804C5.59333 10.0461 5.59279 10.0943 5.59279 10.1426C5.59279 10.6456 5.65135 11.1362 5.77006 11.6112C5.74611 11.6115 5.72247 11.6116 5.69915 11.6116C5.26644 11.6116 4.72555 11.5659 4.07648 11.4745C3.42741 11.3832 2.80208 11.2353 2.20051 11.031C1.59893 10.8268 1.08178 10.5607 0.649069 10.2327C0.216356 9.90482 0 9.50433 0 9.03126V7.41854C0 7.8916 0.216356 8.2921 0.649069 8.62002C1.08178 8.94794 1.59893 9.21404 2.20051 9.41832C2.80208 9.62259 3.42741 9.77043 4.07648 9.86182Z" fill="white"/>
<path d="M7.02521 11.5141C6.89324 11.0783 6.82725 10.6211 6.82725 10.1426C6.82725 10.0694 6.8288 9.99668 6.83189 9.92447C6.85607 9.35918 6.97492 8.82451 7.18843 8.32045C7.19641 8.30161 7.20449 8.28285 7.21266 8.26417C7.45097 7.7193 7.76968 7.24358 8.16877 6.83702C8.35124 6.65113 8.54791 6.48236 8.75877 6.33071C9.02489 6.13932 9.31361 5.97519 9.62494 5.83834C9.91365 5.71142 10.2126 5.61735 10.5218 5.5561C10.8053 5.49992 11.0975 5.47136 11.3983 5.47042C11.4016 5.47041 11.405 5.47041 11.4083 5.4704L11.4136 5.4704C12.0481 5.4704 12.6443 5.59304 13.2023 5.83834C13.7603 6.08363 14.2457 6.41652 14.6585 6.83702C15.0713 7.25752 15.398 7.75199 15.6388 8.32045C15.8796 8.8889 16 9.49629 16 10.1426C16 10.7889 15.8796 11.3963 15.6388 11.9648C15.398 12.5332 15.0713 13.0277 14.6585 13.4482C14.2457 13.8687 13.7603 14.2016 13.2023 14.4469C12.6443 14.6922 12.0481 14.8148 11.4136 14.8148C10.7792 14.8148 10.1829 14.6922 9.62494 14.4469C9.06693 14.2016 8.58154 13.8687 8.16877 13.4482C7.75599 13.0277 7.42921 12.5332 7.18843 11.9648C7.1259 11.8172 7.0715 11.6669 7.02521 11.5141Z" fill="white"/>
<path d="M11.3982 4.21285L11.3983 4.21285V4.19309C11.3983 4.19969 11.3983 4.20628 11.3982 4.21285Z" fill="white"/>
</svg>
