<svg width="16" height="13" viewBox="0 0 16 13" fill="none" xmlns="http://www.w3.org/2000/svg">
<path d="M4.51023 8.86635C4.45185 8.88673 4.38119 8.89691 4.29827 8.89691H4.0495V8.26544H4.29827C4.38119 8.26544 4.45185 8.2769 4.51023 8.29981C4.56946 8.32188 4.61473 8.35668 4.64604 8.40421C4.6782 8.45089 4.69427 8.51158 4.69427 8.58627C4.69427 8.66011 4.6782 8.71994 4.64604 8.76578C4.61473 8.81161 4.56946 8.84514 4.51023 8.86635Z" fill="white"/>
<path fill-rule="evenodd" clip-rule="evenodd" d="M7.52605 0.797506C7.48117 0.7194 7.4555 0.62879 7.4555 0.532166C7.4555 0.238259 7.69303 0 7.98604 0C8.27905 0 8.51658 0.238259 8.51658 0.532166C8.51658 0.62879 8.49091 0.7194 8.44603 0.797506L12.7888 5.15361H13.7661C14.9999 5.15361 16 6.15681 16 7.39431V10.5593C16 11.7968 14.9999 12.8 13.7661 12.8H2.23386C1.00013 12.8 0 11.7968 0 10.5593V7.39431C0 6.15681 1.00013 5.15361 2.23386 5.15361H3.18325L7.52605 0.797506ZM8.13731 1.04239C8.08937 1.05667 8.0386 1.06433 7.98604 1.06433C7.93348 1.06433 7.8827 1.05667 7.83476 1.04239L3.7361 5.15361H12.236L8.13731 1.04239ZM4.75012 10.3075L4.29373 9.4469H4.0495V10.3075H3.3438V7.70017H4.46581C4.65873 7.70017 4.82754 7.7354 4.97224 7.80584C5.11693 7.87629 5.22947 7.97771 5.30985 8.11012C5.39024 8.24252 5.43043 8.40124 5.43043 8.58627C5.43043 8.77299 5.38897 8.93044 5.30605 9.0586C5.22943 9.17822 5.1237 9.27049 4.98885 9.33539L5.51674 10.3075H4.75012ZM8.55371 7.70017L9.47771 9.06496H9.49802V7.70017H10.2037V10.3075H9.61479L8.67555 8.93765H8.66032V10.3075H7.95462V7.70017H8.55371ZM5.73124 10.3075V7.70017H7.60463V8.27053H6.43693V8.71867H7.50817V9.28903H6.43693V9.73717H7.59956V10.3075H5.73124ZM10.4664 8.27053V7.70017H12.7257V8.27053H11.9438V10.3075H11.2483V8.27053H10.4664Z" fill="white"/>
</svg>
